<?xml version="1.0" encoding="UTF-8" standalone="no"?><!DOCTYPE svg PUBLIC "-//W3C//DTD SVG 1.1//EN" "http://www.w3.org/Graphics/SVG/1.1/DTD/svg11.dtd"><svg width="100%" height="100%" viewBox="0 0 10442 2135" version="1.1" xmlns="http://www.w3.org/2000/svg" xmlns:xlink="http://www.w3.org/1999/xlink" xml:space="preserve" xmlns:serif="http://www.serif.com/" style="fill-rule:evenodd;clip-rule:evenodd;stroke-linejoin:round;stroke-miterlimit:2;"><path d="M900.405,1375.12l-455.801,-0l20.317,-26.387l406.954,-0l0.389,0.308c6.118,4.84 13.235,7.856 20.605,9.001l7.536,17.078Zm-65.245,-64.16l-341.156,0l20.317,-26.387l311.342,-0l9.497,26.387Zm-23.093,-64.16l-268.662,0l20.317,-26.387l238.848,-0l9.497,26.387Zm-23.092,-64.16l-196.17,0l20.317,-26.387l166.355,-0l9.498,26.387Zm-14.638,-64.16l-132.131,0l20.317,-26.387l112.457,-0l-0.643,26.387Zm1.563,-64.16l-84.294,0l20.317,-26.387l64.62,0l-0.643,26.387Zm5.875,-64.16l-40.768,0l20.317,-26.387l33.353,0l-12.902,26.387Zm547.506,880.304c-33.18,8.028 -67.14,14.052 -101.743,17.935l-186.031,0c-45.84,-5.144 -90.551,-14.045 -133.818,-26.387l408.035,-0l13.557,8.452Zm-68.851,-46.225l-457.559,0c-18.544,-8.144 -36.733,-16.949 -54.537,-26.387l498.417,0l8.853,18.524c1.336,2.796 2.956,5.429 4.826,7.863Zm-31.73,-64.16l-544.466,0c-12.963,-8.446 -25.674,-17.246 -38.121,-26.387l573.324,0l0.067,0.743c0.473,5.225 1.874,10.324 4.136,15.058l5.06,10.586Zm-10.728,-64.159l-619.533,-0c-10.031,-8.563 -19.854,-17.362 -29.462,-26.388l657.038,0l-6.979,22.312c-0.42,1.343 -0.775,2.703 -1.064,4.076Zm27.895,-64.16l-714.601,-0c-8.075,-8.625 -15.968,-17.423 -23.672,-26.388l728.87,0l28.07,11.317l-1.428,4.402l-12.333,7.299c-1.718,1.017 -3.356,2.144 -4.906,3.37Zm-42.309,-64.16l-726.552,-0c-6.606,-8.663 -13.044,-17.461 -19.31,-26.388l712.867,0l15.267,5.953l12.075,8.631l5.653,11.804Zm8921.85,384.959l-8323.69,0c11.369,-8.584 22.567,-17.382 33.589,-26.387l8310.42,-0l-20.317,26.387Zm49.4,-64.16l-8295.64,0c9.515,-8.634 18.879,-17.431 28.089,-26.387l8287.87,-0l-20.317,26.387Zm49.401,-64.16l-8279.91,0c8.106,-8.666 16.075,-17.463 23.904,-26.387l8276.32,0l-20.317,26.387Zm49.4,-64.16l-8273.72,0c6.969,-8.689 13.81,-17.486 20.519,-26.387l8273.51,0l-20.317,26.387Zm49.401,-64.159l-8275.34,-0c6.009,-8.707 11.897,-17.504 17.661,-26.388l8278,0l-20.317,26.388Zm49.4,-64.16l-8283.64,-0c5.173,-8.72 10.231,-17.516 15.17,-26.388l8288.78,0l-20.317,26.388Zm49.4,-64.16l-8297.78,-0c4.428,-8.73 8.743,-17.527 12.944,-26.388l8304.86,0l0,0.391l-20.017,25.997Zm-10006.3,-154.707l454.406,-0l0,26.387l-473.356,-0c-0.181,-0.357 -0.362,-0.715 -0.542,-1.073l19.492,-25.314Zm-205.265,266.592c3.661,5.513 7.371,10.991 11.128,16.435l-23.782,-0l12.654,-16.435Zm-41.738,54.207l80.119,0c6.71,8.901 13.551,17.698 20.519,26.387l-120.955,0l20.317,-26.387Zm-49.4,64.16l181.726,0c7.828,8.924 15.798,17.721 23.904,26.387l-225.947,0l20.317,-26.387Zm-49.4,64.16l292.076,-0c9.21,8.956 18.574,17.753 28.089,26.387l-340.483,0l20.318,-26.387Zm-49.401,64.16l413.424,-0c11.022,9.005 22.22,17.803 33.589,26.387l-467.33,0l20.317,-26.387Zm396.603,-449.12l388.177,0l0,26.388l-372.404,-0c-5.415,-8.69 -10.674,-17.487 -15.773,-26.388Z" style="fill:#fff;"/><path d="M2010.98,1045l-28.779,44.908l-18.639,-79.475l0,-80.977l-65.065,-123.94l-14.427,-96.634l-53.886,-34.615l-14.728,-80.998l-117.808,-58.947l-27.319,-73.288l-42.102,-51.39l-42.259,21.217l-95.503,-49.565l27.123,-15.64l0,-25.382l-27.123,-13.397l-57.335,-13.417l-98.903,-38.817l-52.719,-36.085l-119.969,-26.361l-53.132,12.987l-37.338,64.873l-99.582,24.716l-12.936,35.864l-39.769,-0l-35.076,28.262l-38.494,38.779l-68.525,76.877l-39.378,0l-20.685,-61.237l50.185,-54.419l-0,-46.783l59.362,-26.627l100.552,-86.133c67.327,-16.426 137.691,-25.138 210.088,-25.138c170.272,0 329.302,48.192 464.006,131.581c240.804,150.928 402.896,416.033 410.163,719.201Zm-891.545,-510.449l0,-92.707l42.103,-18.544l89.984,-21.497l70.237,-0l35.705,40.041l55.426,0l81.903,80.186l0,35.2l-16.631,32.849l-11.298,95.473l11.298,25.712l46.243,30.146l-92.161,25.731l-45.821,-36.082l0,-19.795l-44.28,-25.712l-0,-53.047l-59.444,-52.188l-47.273,-23.087l-73.888,-0l-42.103,-22.679Zm320.265,1352.72l-144.261,-89.934l-31.964,-66.882l-2.302,-25.428l12.086,-38.638l26.695,-15.799l9.762,-30.098l54.436,-37.185l-67.825,-1.406l-45.812,-18.47l-17.696,-36.949l-25.808,-18.449l-80.26,-31.29l-87.803,-24.15l-50.926,-38.319l-41.608,-22.081l-2.525,-27.892l-38.147,-86.448l-26.526,-66.336l20.439,102.896l-22.83,-18.061l-58.685,-163.05l3,-123.136l50.936,-104.178l-17.533,-89.879l10.504,-98.066l-5.429,-59.97l-96.349,-31.607l47.267,-62.338l40.247,-3.643l16.983,-37.029l86.358,-7.818l19.731,59.778l133.394,99.762l81.31,-26.648l16.234,38.756l37.323,-3.379l1.786,19.724l-63.712,82.996l-10.887,38.26l17.017,29.455l57.273,18.012l39.68,65.749l1.59,-92.682l-16.03,-66.819l21.397,-11.837l54.659,14.339l13.56,26.659l35.596,-3.223l44.074,27.006l48.675,45.71l46.609,38.202l1.37,15.14l-31.985,2.896l-31.128,-12.446l-43.236,19.178l11.386,13.932l11.109,18.78l44.175,-3.999l1.503,16.604l-17.673,15.739l-32.184,29.428l-31.958,2.893l-31.493,48.535l-9.208,21.421l-16.393,40.567l3.561,39.331l-42.428,37.06l-8.109,20.674l-14.763,37.345l20.112,21.742l2.723,30.083l-17.608,5.919l-42.55,-54.365l-48.529,-6.415l-35.741,14.044l-42.424,-16.288l-34.195,23.225l-27.289,26.032l3.112,34.373l21.008,47.742l58.144,22.659l44.1,-31.915l25.12,10.848l-17.842,69.546l58.336,-11.306l25.343,22.906l-6.513,44.527l39.906,25.143l52.55,7.743l54.712,-77.413l50.5,15.338l54.479,-8.977l61.221,0l73.654,19.167l84.135,-7.617l74.15,-28.534l44.254,66.99c-102.139,156.433 -253.069,278.171 -431.117,343.538Z" style="fill:#fff;"/><path d="M2096.98,1537.92c-174.064,353.23 -537.799,596.496 -957.904,596.496c-589.009,-0 -1067.21,-478.201 -1067.21,-1067.21c0,-589.009 478.201,-1067.21 1067.21,-1067.21c420.105,0 783.84,243.266 957.904,596.496l-222.405,-0c-155.318,-242.042 -426.812,-402.553 -735.499,-402.553c-481.969,0 -873.266,391.298 -873.266,873.267c-0,481.969 391.297,873.267 873.266,873.267c308.687,-0 580.181,-160.511 735.499,-402.553l222.405,0Z" style="fill:#fff;"/><path d="M2529.49,1221.08l-79.58,-0c-28.567,-33.329 -62.235,-49.993 -101.005,-49.993c-34.009,0 -63.001,13.178 -86.977,39.535c-23.976,26.357 -35.964,56.709 -35.964,91.058c0,34.688 12.328,65.296 36.985,91.822c24.656,26.527 54.158,39.79 88.507,39.79c34.348,0 65.976,-15.814 94.883,-47.441l81.11,-0c-14.283,34.008 -37.664,61.3 -70.142,81.875c-32.478,20.575 -67.252,30.863 -104.321,30.863c-54.074,-0 -100.41,-19.47 -139.01,-58.41c-38.599,-38.94 -57.899,-85.446 -57.899,-139.52c-0,-53.393 19.215,-99.219 57.644,-137.479c38.43,-38.259 84.341,-57.389 137.735,-57.389c38.769,-0 74.223,10.373 106.361,31.118c32.138,20.745 56.029,48.802 71.673,84.171Z" style="fill:#fff;fill-rule:nonzero;"/><path d="M2948.3,1303.21c-0,54.073 -19.3,100.155 -57.9,138.244c-38.599,38.09 -85.106,57.135 -139.519,57.135c-54.414,-0 -100.92,-19.045 -139.52,-57.135c-38.599,-38.089 -57.899,-84.171 -57.899,-138.244c-0,-54.754 19.215,-101.345 57.644,-139.775c38.43,-38.429 85.021,-57.644 139.775,-57.644c54.753,-0 101.345,19.215 139.775,57.644c38.429,38.43 57.644,85.021 57.644,139.775Zm-69.887,-0.51c-0,-36.049 -12.329,-66.997 -36.985,-92.843c-24.656,-25.847 -54.838,-38.77 -90.547,-38.77c-35.709,0 -65.892,12.923 -90.548,38.77c-24.656,25.846 -36.984,56.794 -36.984,92.843c0,35.369 12.413,65.976 37.239,91.823c24.827,25.846 54.924,38.769 90.293,38.769c35.369,0 65.466,-12.923 90.292,-38.769c24.826,-25.847 37.24,-56.454 37.24,-91.823Z" style="fill:#fff;fill-rule:nonzero;"/><path d="M3187.04,1490.94l-185.176,-0l0,-377.494l69.888,-0l-0,312.197l115.288,0l0,65.297Z" style="fill:#fff;fill-rule:nonzero;"/><path d="M3488.01,1353.2c0,38.09 -7.312,67.847 -21.935,89.273c-12.584,17.684 -28.993,31.457 -49.228,41.32c-20.235,9.862 -41.405,14.794 -63.51,14.794c-21.766,-0 -42.766,-4.762 -63.001,-14.284c-20.235,-9.522 -36.644,-22.786 -49.227,-39.79c-15.644,-20.745 -23.466,-51.183 -23.466,-91.313l-0,-239.759l69.887,-0l0,239.759c0,53.394 21.766,80.09 65.296,80.09c43.531,0 65.297,-26.696 65.297,-80.09l-0,-239.759l69.887,-0l0,239.759Z" style="fill:#fff;fill-rule:nonzero;"/><path d="M3943.05,1490.94l-69.887,-0l-0,-283.121l-1.531,0l-96.414,283.121l-59.174,-0l-96.924,-283.121l-1.021,0l0,283.121l-69.887,-0l-0,-377.494l96.924,-0l100.495,285.671l1.02,-0l99.475,-285.671l96.924,-0l0,377.494Z" style="fill:#fff;fill-rule:nonzero;"/><path d="M4256.27,1378.71c-0,38.769 -15.644,68.697 -46.932,89.782c-22.105,14.964 -54.583,22.446 -97.434,22.446l-101.005,-0l-0,-377.494l81.62,-0c15.984,-0 29.163,0.425 39.535,1.275c10.373,0.85 22.191,3.571 35.454,8.162c13.263,4.591 24.656,11.138 34.178,19.64c9.523,8.502 17.26,19.13 23.211,31.883c5.952,12.753 8.927,25.591 8.927,38.515c0,31.968 -14.113,55.944 -42.34,71.927c43.191,15.644 64.786,46.932 64.786,93.864Zm-148.957,-118.35c37.749,0 56.624,-13.603 56.624,-40.81c0,-27.207 -18.024,-40.81 -54.073,-40.81l-29.078,0l0,81.62l26.527,0Zm79.07,115.799c-0,-17.684 -6.717,-30.522 -20.15,-38.514c-13.434,-7.992 -29.673,-11.988 -48.718,-11.988l-36.729,-0l0,99.984l35.199,0c46.932,0 70.398,-16.494 70.398,-49.482Z" style="fill:#fff;fill-rule:nonzero;"/><rect x="4307.79" y="1113.44" width="69.887" height="377.494" style="fill:#fff;fill-rule:nonzero;"/><path d="M4787.31,1490.94l-77.029,-0l-40.3,-97.435l-135.184,0l-40.3,97.435l-77.029,-0l157.119,-377.494l54.584,-0l158.139,377.494Zm-142.325,-163.241l-42.851,-115.799l-1.02,0l-42.851,115.799l86.722,0Z" style="fill:#fff;fill-rule:nonzero;"/><path d="M5156.13,1490.94l-185.176,-0l-0,-377.494l69.887,-0l0,312.197l115.289,0l-0,65.297Z" style="fill:#fff;fill-rule:nonzero;"/><path d="M5570.35,1303.21c-0,54.073 -19.3,100.155 -57.9,138.244c-38.599,38.09 -85.106,57.135 -139.519,57.135c-54.414,-0 -100.921,-19.045 -139.52,-57.135c-38.6,-38.089 -57.9,-84.171 -57.9,-138.244c0,-54.754 19.215,-101.345 57.645,-139.775c38.429,-38.429 85.021,-57.644 139.775,-57.644c54.753,-0 101.345,19.215 139.774,57.644c38.43,38.43 57.645,85.021 57.645,139.775Zm-69.888,-0.51c0,-36.049 -12.328,-66.997 -36.984,-92.843c-24.656,-25.847 -54.839,-38.77 -90.547,-38.77c-35.709,0 -65.892,12.923 -90.548,38.77c-24.656,25.846 -36.984,56.794 -36.984,92.843c-0,35.369 12.413,65.976 37.239,91.823c24.826,25.846 54.924,38.769 90.293,38.769c35.368,0 65.466,-12.923 90.292,-38.769c24.826,-25.847 37.239,-56.454 37.239,-91.823Z" style="fill:#fff;fill-rule:nonzero;"/><path d="M6003.96,1306.78c0,53.053 -19.895,98.284 -59.684,135.694c-39.79,37.409 -86.552,56.114 -140.285,56.114c-55.434,-0 -103.131,-18.96 -143.091,-56.88c-39.96,-37.919 -59.94,-84.426 -59.94,-139.519c0,-54.414 19.895,-100.75 59.685,-139.01c39.79,-38.259 86.892,-57.389 141.305,-57.389c38.77,-0 75.839,10.968 111.208,32.903c35.369,21.936 59.345,50.418 71.928,85.446l-83.661,0c-10.883,-16.664 -25.421,-29.672 -43.616,-39.024c-18.194,-9.353 -37.324,-14.029 -57.389,-14.029c-36.389,0 -67.082,12.838 -92.078,38.515c-24.996,25.676 -37.494,56.709 -37.494,93.098c-0,17.004 3.57,34.008 10.712,51.013c10.543,25.166 26.612,44.721 48.207,58.664c21.596,13.944 46.337,20.915 74.224,20.915c23.806,0 45.656,-6.206 65.551,-18.619c19.895,-12.413 35.284,-29.333 46.166,-50.758l-158.139,0l0,-65.296l246.391,-0l0,8.162Z" style="fill:#fff;fill-rule:nonzero;"/><rect x="6052.42" y="1113.44" width="69.887" height="377.494" style="fill:#fff;fill-rule:nonzero;"/><path d="M6410.02,1378.2c0,35.368 -11.563,64.276 -34.688,86.721c-23.126,22.446 -52.373,33.669 -87.742,33.669c-33.668,-0 -62.236,-10.968 -85.701,-32.904c-23.466,-21.935 -35.879,-49.567 -37.24,-82.895l73.459,-0c1.36,14.964 6.376,27.122 15.048,36.474c8.672,9.352 20.32,14.028 34.944,14.028c13.943,0 26.102,-4.421 36.474,-13.263c10.373,-8.842 15.559,-20.235 15.559,-34.178c-0,-5.782 -0.68,-11.138 -2.041,-16.069c-1.36,-4.932 -3.655,-9.353 -6.886,-13.264c-3.231,-3.911 -6.122,-7.141 -8.672,-9.692c-2.551,-2.551 -6.632,-5.186 -12.243,-7.907c-5.612,-2.721 -9.948,-4.676 -13.009,-5.867c-3.06,-1.19 -8.077,-3.06 -15.048,-5.611c-6.972,-2.551 -11.648,-4.336 -14.029,-5.356c-17.344,-6.802 -28.737,-11.563 -34.178,-14.284c-37.07,-19.385 -55.604,-50.842 -55.604,-94.373c-0,-30.948 10.627,-56.624 31.883,-77.029c21.255,-20.405 47.526,-30.608 78.814,-30.608c30.608,-0 56.454,10.288 77.54,30.863c21.085,20.575 32.478,46.166 34.178,76.774l-71.418,-0c-2.38,-28.227 -16.494,-42.341 -42.34,-42.341c-11.223,0 -20.49,3.571 -27.802,10.713c-7.312,7.142 -10.968,16.324 -10.968,27.547c0,4.421 0.595,8.502 1.786,12.243c1.19,3.741 2.465,6.971 3.826,9.692c1.36,2.721 3.74,5.442 7.141,8.162c3.401,2.721 6.037,4.761 7.907,6.122c1.871,1.36 5.272,3.06 10.203,5.101c4.931,2.04 8.247,3.401 9.947,4.081c1.701,0.68 5.527,1.955 11.478,3.826c5.952,1.87 9.437,2.976 10.458,3.316c31.628,10.542 56.029,24.826 73.203,42.85c17.174,18.025 25.761,42.511 25.761,73.459Z" style="fill:#fff;fill-rule:nonzero;"/><path d="M6637.03,1178.74l-70.398,0l0,312.198l-69.887,-0l-0,-312.198l-69.887,0l-0,-65.296l210.172,-0l-0,65.296Z" style="fill:#fff;fill-rule:nonzero;"/><rect x="6674.78" y="1113.44" width="69.887" height="377.494" style="fill:#fff;fill-rule:nonzero;"/><path d="M7171.64,1221.08l-79.58,-0c-28.567,-33.329 -62.236,-49.993 -101.005,-49.993c-34.009,0 -63.001,13.178 -86.977,39.535c-23.976,26.357 -35.964,56.709 -35.964,91.058c0,34.688 12.328,65.296 36.984,91.822c24.657,26.527 54.159,39.79 88.507,39.79c34.349,0 65.977,-15.814 94.884,-47.441l81.11,-0c-14.283,34.008 -37.664,61.3 -70.142,81.875c-32.478,20.575 -67.252,30.863 -104.321,30.863c-54.074,-0 -100.41,-19.47 -139.01,-58.41c-38.599,-38.94 -57.899,-85.446 -57.899,-139.52c-0,-53.393 19.215,-99.219 57.644,-137.479c38.43,-38.259 84.341,-57.389 137.734,-57.389c38.77,-0 74.224,10.373 106.362,31.118c32.138,20.745 56.029,48.802 71.673,84.171Z" style="fill:#fff;fill-rule:nonzero;"/><path d="M7430.27,1378.2c-0,35.368 -11.563,64.276 -34.689,86.721c-23.125,22.446 -52.373,33.669 -87.742,33.669c-33.668,-0 -62.235,-10.968 -85.701,-32.904c-23.466,-21.935 -35.879,-49.567 -37.239,-82.895l73.458,-0c1.361,14.964 6.377,27.122 15.049,36.474c8.672,9.352 20.32,14.028 34.944,14.028c13.943,0 26.101,-4.421 36.474,-13.263c10.372,-8.842 15.559,-20.235 15.559,-34.178c-0,-5.782 -0.681,-11.138 -2.041,-16.069c-1.36,-4.932 -3.656,-9.353 -6.887,-13.264c-3.23,-3.911 -6.121,-7.141 -8.672,-9.692c-2.55,-2.551 -6.631,-5.186 -12.243,-7.907c-5.611,-2.721 -9.947,-4.676 -13.008,-5.867c-3.061,-1.19 -8.077,-3.06 -15.049,-5.611c-6.972,-2.551 -11.648,-4.336 -14.028,-5.356c-17.345,-6.802 -28.737,-11.563 -34.179,-14.284c-37.069,-19.385 -55.604,-50.842 -55.604,-94.373c0,-30.948 10.628,-56.624 31.883,-77.029c21.256,-20.405 47.527,-30.608 78.815,-30.608c30.607,-0 56.454,10.288 77.539,30.863c21.085,20.575 32.478,46.166 34.179,76.774l-71.418,-0c-2.381,-28.227 -16.494,-42.341 -42.341,-42.341c-11.222,0 -20.49,3.571 -27.802,10.713c-7.311,7.142 -10.967,16.324 -10.967,27.547c-0,4.421 0.595,8.502 1.785,12.243c1.19,3.741 2.466,6.971 3.826,9.692c1.36,2.721 3.741,5.442 7.142,8.162c3.401,2.721 6.036,4.761 7.907,6.122c1.87,1.36 5.271,3.06 10.202,5.101c4.932,2.04 8.247,3.401 9.948,4.081c1.7,0.68 5.526,1.955 11.478,3.826c5.951,1.87 9.437,2.976 10.457,3.316c31.628,10.542 56.029,24.826 73.204,42.85c17.174,18.025 25.761,42.511 25.761,73.459Z" style="fill:#fff;fill-rule:nonzero;"/><rect x="7623.61" y="1113.44" width="69.887" height="377.494" style="fill:#fff;fill-rule:nonzero;"/><path d="M8072.01,1490.94l-78.049,-0l-157.629,-274.449l-1.02,0l-0,274.449l-69.888,-0l0,-377.494l79.58,-0l156.099,274.448l1.02,0l0,-274.448l69.887,-0l0,377.494Z" style="fill:#fff;fill-rule:nonzero;"/><path d="M8497.97,1221.08l-79.579,-0c-28.568,-33.329 -62.236,-49.993 -101.006,-49.993c-34.008,0 -63,13.178 -86.976,39.535c-23.976,26.357 -35.964,56.709 -35.964,91.058c-0,34.688 12.328,65.296 36.984,91.822c24.656,26.527 54.159,39.79 88.507,39.79c34.349,0 65.976,-15.814 94.884,-47.441l81.11,-0c-14.284,34.008 -37.665,61.3 -70.143,81.875c-32.478,20.575 -67.251,30.863 -104.321,30.863c-54.073,-0 -100.41,-19.47 -139.009,-58.41c-38.6,-38.94 -57.9,-85.446 -57.9,-139.52c0,-53.393 19.215,-99.219 57.645,-137.479c38.429,-38.259 84.341,-57.389 137.734,-57.389c38.77,-0 74.224,10.373 106.361,31.118c32.138,20.745 56.029,48.802 71.673,84.171Z" style="fill:#fff;fill-rule:nonzero;"/><rect x="8542.35" y="1423.09" width="67.847" height="67.847" style="fill:#fff;fill-rule:nonzero;"/></svg>